# Blender 3.3.1
# www.blender.org
mtllib untitled.mtl
o Cube
v -1.000000 -1.000000 2.000000
v 1.000000 1.000000 2.000000
v 1.000000 0.999999 4.000000
v 5.000000 -1.000001 6.000000
v 5.000000 -1.000000 2.000000
v 3.000000 1.000000 2.000000
v -1.000000 -1.000001 6.000000
v 3.000000 0.999999 4.000000
v -5.000000 -1.000000 -2.000000
v -3.000000 1.000000 -2.000000
v 1.000000 -1.000000 -2.000000
v -1.000000 1.000000 -2.000000
v -3.000000 1.000001 -4.000000
v -5.000000 -0.999999 -6.000000
v 1.000000 -0.999999 -6.000000
v -1.000000 1.000001 -4.000000
vn -0.7071 0.7071 -0.0000
vn -0.0000 1.0000 -0.0000
vn 0.5774 0.5774 -0.5774
vn -0.0000 -1.0000 -0.0000
vn 0.7071 0.7071 -0.0000
vn -0.5774 0.5774 0.5774
vn -0.0000 0.7071 -0.7071
vn -0.0000 0.7071 0.7071
vt 0.375000 0.000000
vt 0.125000 0.750000
vt 0.875000 0.750000
vt 0.625000 0.000000
vt 0.875000 0.750000
vt 0.625000 0.000000
vt 0.625000 1.000000
vt 0.375000 0.750000
vt 0.375000 0.750000
vt 0.625000 0.750000
vt 0.375000 0.000000
vt 0.125000 0.750000
vt 0.375000 1.000000
vt 0.625000 0.750000
vt 0.125000 0.625000
vt 0.375000 0.125000
vt 0.875000 0.625000
vt 0.625000 0.125000
vt 0.375000 0.625000
vt 0.625000 0.625000
vt 0.875000 0.500000
vt 0.625000 0.250000
vt 0.375000 0.375017
vt 0.125000 0.500000
vt 0.375000 0.250000
vt 0.375000 0.416659
vt 0.375000 0.500000
vt 0.625000 0.500000
s 0
usemtl Material.001
f 9/16/1 10/18/1 13/22/1 14/23/1
f 6/10/2 2/3/2 3/5/2 8/14/2
f 16/28/2 13/21/2 10/17/2 12/20/2
f 14/24/4 15/26/4 11/19/4 9/15/4
f 1/2/4 5/9/4 4/8/4 7/12/4
f 5/9/5 6/10/5 8/14/5 4/8/5
usemtl Material.002
f 2/4/1 1/1/1 7/11/1 3/6/1
f 15/26/5 16/28/5 12/20/5 11/19/5
f 14/25/7 13/22/7 16/28/7 15/27/7
f 4/8/8 8/14/8 3/7/8 7/13/8
usemtl Material.003
f 11/19/3 12/20/3 6/10/3 5/9/3
f 9/15/4 11/19/4 5/9/4 1/2/4
f 12/20/2 10/17/2 2/3/2 6/10/2
f 1/1/6 2/4/6 10/18/6 9/16/6
