# Blender 3.3.1
# www.blender.org
mtllib untitled.mtl
o Cube
v -1.776048 -0.022689 -0.309030
v -1.776048 -0.645276 -0.309030
v -1.776048 -0.022689 0.313557
v -1.776048 -0.645276 0.313557
v -2.671311 0.113649 -0.445368
v -2.671311 -0.781614 -0.445368
v -2.671311 0.113649 0.449894
v -2.671311 -0.781614 0.449894
v -1.776048 0.113649 -0.445368
v -1.776048 -0.781614 -0.445368
v -1.776048 0.113649 0.449894
v -1.776048 -0.781614 0.449894
v -0.541720 -0.022689 -0.309030
v -0.541720 -0.645276 -0.309030
v -0.541720 -0.022689 0.313557
v -0.541720 -0.645276 0.313557
v -1.451433 -0.036020 -0.290286
v -0.866335 -0.036020 -0.290286
v -1.451433 -0.036020 0.294812
v -0.866335 -0.036020 0.294812
v -1.451433 1.123984 -0.290286
v -0.866335 1.123984 -0.290286
v -1.451433 1.123984 0.294812
v -0.866335 1.123984 0.294812
v -2.630644 -0.307604 -0.282950
v -2.216917 0.106123 -0.282950
v -2.630644 -0.307604 0.302149
v -2.216917 0.106123 0.302149
v -3.450891 0.512643 -0.282950
v -3.037164 0.926370 -0.282950
v -3.450891 0.512643 0.302149
v -3.037164 0.926370 0.302149
v -0.728077 1.867586 -0.309030
v -0.728077 1.244999 -0.309030
v -0.728077 1.867586 0.313557
v -0.728077 1.244999 0.313557
v -1.623339 2.003924 -0.445368
v -1.623339 1.108662 -0.445368
v -1.623339 2.003924 0.449894
v -1.623339 1.108662 0.449894
v -0.728077 2.003924 -0.445368
v -0.728077 1.108662 -0.445368
v -0.728077 2.003924 0.449894
v -0.728077 1.108662 0.449894
v 0.506252 1.867586 -0.309030
v 0.506252 1.244999 -0.309030
v 0.506252 1.867586 0.313557
v 0.506252 1.244999 0.313557
v -0.403462 1.854255 -0.290286
v 0.181637 1.854255 -0.290286
v -0.403462 1.854255 0.294812
v 0.181637 1.854255 0.294812
v -0.403462 3.014259 -0.290286
v 0.181637 3.014259 -0.290286
v -0.403462 3.014259 0.294812
v 0.181637 3.014259 0.294812
v -1.582672 1.582672 -0.282950
v -1.168945 1.996399 -0.282950
v -1.582672 1.582672 0.302149
v -1.168945 1.996399 0.302149
v -2.402919 2.402918 -0.282950
v -1.989192 2.816646 -0.282950
v -2.402919 2.402918 0.302149
v -1.989192 2.816646 0.302149
v -2.878341 -1.858026 -0.309030
v -2.878341 -2.480613 -0.309030
v -2.878341 -1.858026 0.313557
v -2.878341 -2.480613 0.313557
v -3.773604 -1.721689 -0.445368
v -3.773604 -2.616951 -0.445368
v -3.773604 -1.721689 0.449895
v -3.773604 -2.616951 0.449895
v -2.878341 -1.721689 -0.445368
v -2.878341 -2.616951 -0.445368
v -2.878341 -1.721689 0.449895
v -2.878341 -2.616951 0.449895
v -1.644013 -1.858026 -0.309030
v -1.644013 -2.480613 -0.309030
v -1.644013 -1.858026 0.313557
v -1.644013 -2.480613 0.313557
v -2.553726 -1.871358 -0.290286
v -1.968628 -1.871358 -0.290286
v -2.553726 -1.871358 0.294812
v -1.968628 -1.871358 0.294812
v -2.553726 -0.711354 -0.290286
v -1.968628 -0.711354 -0.290286
v -2.553726 -0.711354 0.294812
v -1.968628 -0.711354 0.294812
v -3.732937 -2.142941 -0.282950
v -3.319210 -1.729214 -0.282950
v -3.732937 -2.142941 0.302149
v -3.319210 -1.729214 0.302149
v -4.553185 -1.322694 -0.282950
v -4.139457 -0.908967 -0.282950
v -4.553185 -1.322694 0.302149
v -4.139457 -0.908967 0.302149
v 0.680268 -1.113064 -0.572575
v 0.680268 0.033525 -0.572575
v 0.680268 -1.113064 0.574014
v 0.680268 0.033525 0.574014
v 2.329031 -1.364151 -0.823662
v 2.329031 0.284612 -0.823662
v 2.329031 -1.364151 0.825101
v 2.329031 0.284612 0.825101
v 0.680268 -1.364151 -0.823662
v 0.680268 0.284612 -0.823662
v 0.680268 -1.364151 0.825101
v 0.680268 0.284612 0.825101
v -1.592937 -1.113064 -0.572575
v -1.592937 0.033525 -0.572575
v -1.592937 -1.113064 0.574014
v -1.592937 0.033525 0.574014
v 0.082440 -1.088512 -0.538055
v -0.995109 -1.088512 -0.538055
v 0.082440 -1.088512 0.539494
v -0.995109 -1.088512 0.539494
v 0.082440 -3.224838 -0.538055
v -0.995109 -3.224838 -0.538055
v 0.082440 -3.224838 0.539494
v -0.995109 -3.224838 0.539494
v 2.254137 -0.588350 -0.524544
v 1.492195 -1.350292 -0.524544
v 2.254137 -0.588350 0.553004
v 1.492195 -1.350292 0.553004
v 3.764747 -2.098961 -0.524544
v 3.002806 -2.860902 -0.524544
v 3.764747 -2.098961 0.553004
v 3.002806 -2.860902 0.553004
v -1.249733 -4.594296 -0.572575
v -1.249733 -3.447706 -0.572575
v -1.249733 -4.594296 0.574014
v -1.249733 -3.447706 0.574014
v 0.399030 -4.845383 -0.823662
v 0.399031 -3.196620 -0.823662
v 0.399030 -4.845383 0.825101
v 0.399031 -3.196620 0.825101
v -1.249733 -4.845383 -0.823662
v -1.249733 -3.196620 -0.823662
v -1.249733 -4.845383 0.825101
v -1.249733 -3.196620 0.825101
v -3.522939 -4.594296 -0.572575
v -3.522938 -3.447706 -0.572575
v -3.522939 -4.594296 0.574014
v -3.522938 -3.447706 0.574014
v -1.847561 -4.569744 -0.538055
v -2.925109 -4.569744 -0.538055
v -1.847561 -4.569744 0.539494
v -2.925109 -4.569744 0.539494
v -1.847561 -6.706069 -0.538055
v -2.925109 -6.706069 -0.538055
v -1.847561 -6.706069 0.539494
v -2.925109 -6.706069 0.539494
v 0.324136 -4.069582 -0.524544
v -0.437806 -4.831523 -0.524544
v 0.324136 -4.069582 0.553004
v -0.437806 -4.831523 0.553004
v 1.834746 -5.580192 -0.524544
v 1.072805 -6.342134 -0.524544
v 1.834746 -5.580192 0.553004
v 1.072805 -6.342134 0.553004
v 2.710310 2.266991 -0.572575
v 2.710310 3.413580 -0.572575
v 2.710310 2.266991 0.574014
v 2.710310 3.413580 0.574014
v 4.359074 2.015903 -0.823662
v 4.359074 3.664667 -0.823662
v 4.359074 2.015903 0.825101
v 4.359074 3.664667 0.825101
v 2.710310 2.015904 -0.823662
v 2.710310 3.664667 -0.823662
v 2.710310 2.015904 0.825101
v 2.710310 3.664667 0.825101
v 0.437105 2.266991 -0.572575
v 0.437105 3.413580 -0.572575
v 0.437105 2.266991 0.574014
v 0.437105 3.413580 0.574014
v 2.112481 2.291543 -0.538054
v 1.034933 2.291543 -0.538054
v 2.112481 2.291543 0.539494
v 1.034933 2.291543 0.539494
v 2.112481 0.155217 -0.538054
v 1.034933 0.155217 -0.538054
v 2.112481 0.155217 0.539494
v 1.034933 0.155217 0.539494
v 4.284179 2.791705 -0.524544
v 3.522236 2.029764 -0.524544
v 4.284179 2.791705 0.553005
v 3.522236 2.029764 0.553005
v 5.794789 1.281094 -0.524544
v 5.032847 0.519153 -0.524544
v 5.794789 1.281094 0.553005
v 5.032847 0.519153 0.553005
v -2.852440 7.911009 2.852440
v 2.852440 7.911009 2.852440
v -2.852440 7.911009 -2.852440
v 2.852440 7.911009 -2.852440
v 4.425898 7.911009 2.852440
v 10.130776 7.911009 2.852440
v 4.425898 7.911009 -2.852440
v 10.130776 7.911009 -2.852440
v -10.247080 7.911009 2.852440
v -4.542201 7.911009 2.852440
v -10.247080 7.911009 -2.852440
v -4.542201 7.911009 -2.852440
v -2.852440 7.911009 -4.833994
v 2.852440 7.911009 -4.833994
v -2.852440 7.911009 -10.538874
v 2.852440 7.911009 -10.538874
v 4.425898 7.911009 -4.833994
v 10.130776 7.911009 -4.833994
v 4.425898 7.911009 -10.538874
v 10.130776 7.911009 -10.538874
v -10.247080 7.911009 -4.833994
v -4.542201 7.911009 -4.833994
v -10.247080 7.911009 -10.538874
v -4.542201 7.911009 -10.538874
v -2.852440 7.911009 10.518850
v 2.852440 7.911009 10.518850
v -2.852440 7.911009 4.813971
v 2.852440 7.911009 4.813971
v 4.425898 7.911009 10.518850
v 10.130776 7.911009 10.518850
v 4.425898 7.911009 4.813971
v 10.130776 7.911009 4.813971
v -10.247080 7.911009 10.518850
v -4.542201 7.911009 10.518850
v -10.247080 7.911009 4.813971
v -4.542201 7.911009 4.813971
vn -0.0000 1.0000 -0.0000
vn -0.0000 -0.0000 1.0000
vn -1.0000 -0.0000 -0.0000
vn -0.0000 -1.0000 -0.0000
vn -0.0000 -0.0000 -1.0000
vn 1.0000 -0.0000 -0.0000
vn -0.7071 0.7071 -0.0000
vn 0.7071 0.7071 -0.0000
vn -0.7071 -0.7071 -0.0000
vn 0.7071 -0.7071 -0.0000
vt 0.586928 0.538072
vt 0.413072 0.538072
vt 0.586928 0.711928
vt 0.413072 0.711928
vt 0.875000 0.500000
vt 0.625000 0.250000
vt 0.125000 0.500000
vt 0.375000 0.250000
vt 0.875000 0.750000
vt 0.625000 1.000000
vt 0.625000 0.000000
vt 0.375000 1.000000
vt 0.375000 0.000000
vt 0.125000 0.750000
vt 0.625000 0.500000
vt 0.375000 0.500000
vt 0.625000 0.750000
vt 0.375000 0.750000
vt 0.586928 0.538072
vt 0.413072 0.538072
vt 0.586928 0.711928
vt 0.413072 0.711928
vt 0.586928 0.538072
vt 0.413072 0.538072
vt 0.586928 0.711928
vt 0.413072 0.711928
vt 0.586928 0.538072
vt 0.413072 0.538072
vt 0.586928 0.711928
vt 0.413072 0.711928
vt 0.586928 0.538072
vt 0.413072 0.538072
vt 0.586928 0.711928
vt 0.413072 0.711928
vt 0.586928 0.538072
vt 0.413072 0.538072
vt 0.586928 0.711928
vt 0.413072 0.711928
vt 0.586928 0.538072
vt 0.413072 0.538072
vt 0.586928 0.711928
vt 0.413072 0.711928
vt 0.875000 0.500000
vt 0.625000 0.250000
vt 0.125000 0.500000
vt 0.375000 0.250000
vt 0.875000 0.750000
vt 0.625000 1.000000
vt 0.625000 0.000000
vt 0.375000 1.000000
vt 0.375000 0.000000
vt 0.125000 0.750000
vt 0.625000 0.500000
vt 0.375000 0.500000
vt 0.625000 0.750000
vt 0.375000 0.750000
vt 0.586928 0.538072
vt 0.413072 0.538072
vt 0.586928 0.711928
vt 0.413072 0.711928
vt 0.586928 0.538072
vt 0.413072 0.538072
vt 0.586928 0.711928
vt 0.413072 0.711928
vt 0.586928 0.538072
vt 0.413072 0.538072
vt 0.586928 0.711928
vt 0.413072 0.711928
vt 0.586928 0.538072
vt 0.413072 0.538072
vt 0.586928 0.711928
vt 0.413072 0.711928
vt 0.586928 0.538072
vt 0.413072 0.538072
vt 0.586928 0.711928
vt 0.413072 0.711928
vt 0.586928 0.538072
vt 0.413072 0.538072
vt 0.586928 0.711928
vt 0.413072 0.711928
vt 0.875000 0.500000
vt 0.625000 0.250000
vt 0.125000 0.500000
vt 0.375000 0.250000
vt 0.875000 0.750000
vt 0.625000 1.000000
vt 0.625000 0.000000
vt 0.375000 1.000000
vt 0.375000 0.000000
vt 0.125000 0.750000
vt 0.625000 0.500000
vt 0.375000 0.500000
vt 0.625000 0.750000
vt 0.375000 0.750000
vt 0.586928 0.538072
vt 0.413072 0.538072
vt 0.586928 0.711928
vt 0.413072 0.711928
vt 0.586928 0.538072
vt 0.413072 0.538072
vt 0.586928 0.711928
vt 0.413072 0.711928
vt 0.586928 0.538072
vt 0.413072 0.538072
vt 0.586928 0.711928
vt 0.413072 0.711928
vt 0.586928 0.538072
vt 0.413072 0.538072
vt 0.586928 0.711928
vt 0.413072 0.711928
vt 0.586928 0.538072
vt 0.413072 0.538072
vt 0.586928 0.711928
vt 0.413072 0.711928
vt 0.586928 0.538072
vt 0.413072 0.538072
vt 0.586928 0.711928
vt 0.413072 0.711928
vt 0.875000 0.500000
vt 0.625000 0.250000
vt 0.125000 0.500000
vt 0.375000 0.250000
vt 0.875000 0.750000
vt 0.625000 1.000000
vt 0.625000 0.000000
vt 0.375000 1.000000
vt 0.375000 0.000000
vt 0.125000 0.750000
vt 0.625000 0.500000
vt 0.375000 0.500000
vt 0.625000 0.750000
vt 0.375000 0.750000
vt 0.586928 0.538072
vt 0.413072 0.538072
vt 0.586928 0.711928
vt 0.413072 0.711928
vt 0.586928 0.538072
vt 0.413072 0.538072
vt 0.586928 0.711928
vt 0.413072 0.711928
vt 0.586928 0.538072
vt 0.413072 0.538072
vt 0.586928 0.711928
vt 0.413072 0.711928
vt 0.586928 0.538072
vt 0.413072 0.538072
vt 0.586928 0.711928
vt 0.413072 0.711928
vt 0.586928 0.538072
vt 0.413072 0.538072
vt 0.586928 0.711928
vt 0.413072 0.711928
vt 0.586928 0.538072
vt 0.413072 0.538072
vt 0.586928 0.711928
vt 0.413072 0.711928
vt 0.875000 0.500000
vt 0.625000 0.250000
vt 0.125000 0.500000
vt 0.375000 0.250000
vt 0.875000 0.750000
vt 0.625000 1.000000
vt 0.625000 0.000000
vt 0.375000 1.000000
vt 0.375000 0.000000
vt 0.125000 0.750000
vt 0.625000 0.500000
vt 0.375000 0.500000
vt 0.625000 0.750000
vt 0.375000 0.750000
vt 0.586928 0.538072
vt 0.413072 0.538072
vt 0.586928 0.711928
vt 0.413072 0.711928
vt 0.586928 0.538072
vt 0.413072 0.538072
vt 0.586928 0.711928
vt 0.413072 0.711928
vt 0.586928 0.538072
vt 0.413072 0.538072
vt 0.586928 0.711928
vt 0.413072 0.711928
vt 0.586928 0.538072
vt 0.413072 0.538072
vt 0.586928 0.711928
vt 0.413072 0.711928
vt 0.586928 0.538072
vt 0.413072 0.538072
vt 0.586928 0.711928
vt 0.413072 0.711928
vt 0.586928 0.538072
vt 0.413072 0.538072
vt 0.586928 0.711928
vt 0.413072 0.711928
vt 0.875000 0.500000
vt 0.625000 0.250000
vt 0.125000 0.500000
vt 0.375000 0.250000
vt 0.875000 0.750000
vt 0.625000 1.000000
vt 0.625000 0.000000
vt 0.375000 1.000000
vt 0.375000 0.000000
vt 0.125000 0.750000
vt 0.625000 0.500000
vt 0.375000 0.500000
vt 0.625000 0.750000
vt 0.375000 0.750000
vt 0.586928 0.538072
vt 0.413072 0.538072
vt 0.586928 0.711928
vt 0.413072 0.711928
vt 0.586928 0.538072
vt 0.413072 0.538072
vt 0.586928 0.711928
vt 0.413072 0.711928
vt 0.586928 0.538072
vt 0.413072 0.538072
vt 0.586928 0.711928
vt 0.413072 0.711928
vt 0.586928 0.538072
vt 0.413072 0.538072
vt 0.586928 0.711928
vt 0.413072 0.711928
vt 0.586928 0.538072
vt 0.413072 0.538072
vt 0.586928 0.711928
vt 0.413072 0.711928
vt 0.000000 0.000000
vt 1.000000 0.000000
vt 0.000000 1.000000
vt 1.000000 1.000000
vt 0.000000 0.000000
vt 1.000000 0.000000
vt 0.000000 1.000000
vt 1.000000 1.000000
vt 0.000000 0.000000
vt 1.000000 0.000000
vt 0.000000 1.000000
vt 1.000000 1.000000
vt 0.000000 0.000000
vt 1.000000 0.000000
vt 0.000000 1.000000
vt 1.000000 1.000000
vt 0.000000 0.000000
vt 1.000000 0.000000
vt 0.000000 1.000000
vt 1.000000 1.000000
vt 0.000000 0.000000
vt 1.000000 0.000000
vt 0.000000 1.000000
vt 1.000000 1.000000
vt 0.000000 0.000000
vt 1.000000 0.000000
vt 0.000000 1.000000
vt 1.000000 1.000000
vt 0.000000 0.000000
vt 1.000000 0.000000
vt 0.000000 1.000000
vt 1.000000 1.000000
vt 0.000000 0.000000
vt 1.000000 0.000000
vt 0.000000 1.000000
vt 1.000000 1.000000
s 0
usemtl Material
f 9/15/1 5/5/1 7/9/1 11/17/1
f 12/18/2 11/17/2 7/10/2 8/12/2
f 8/13/3 7/11/3 5/6/3 6/8/3
f 6/7/4 10/16/4 12/18/4 8/14/4
f 4/4/4 2/2/4 14/20/4 16/22/4
f 6/8/5 5/6/5 9/15/5 10/16/5
f 19/25/2 20/26/2 24/30/2 23/29/2
f 22/28/1 21/27/1 23/29/1 24/30/1
f 20/26/6 18/24/6 22/28/6 24/30/6
f 10/16/6 9/15/6 11/17/6 12/18/6
f 14/20/6 13/19/6 15/21/6 16/22/6
f 3/3/2 4/4/2 16/22/2 15/21/2
f 1/1/1 3/3/1 15/21/1 13/19/1
f 2/2/5 1/1/5 13/19/5 14/20/5
f 17/23/3 19/25/3 23/29/3 21/27/3
f 18/24/5 17/23/5 21/27/5 22/28/5
f 27/33/2 28/34/2 32/38/2 31/37/2
f 30/36/7 29/35/7 31/37/7 32/38/7
f 28/34/8 26/32/8 30/36/8 32/38/8
f 25/31/9 27/33/9 31/37/9 29/35/9
f 26/32/5 25/31/5 29/35/5 30/36/5
f 41/53/1 37/43/1 39/47/1 43/55/1
f 44/56/2 43/55/2 39/48/2 40/50/2
f 40/51/3 39/49/3 37/44/3 38/46/3
f 38/45/4 42/54/4 44/56/4 40/52/4
f 36/42/4 34/40/4 46/58/4 48/60/4
f 38/46/5 37/44/5 41/53/5 42/54/5
f 51/63/2 52/64/2 56/68/2 55/67/2
f 54/66/1 53/65/1 55/67/1 56/68/1
f 52/64/6 50/62/6 54/66/6 56/68/6
f 42/54/6 41/53/6 43/55/6 44/56/6
f 46/58/6 45/57/6 47/59/6 48/60/6
f 35/41/2 36/42/2 48/60/2 47/59/2
f 33/39/1 35/41/1 47/59/1 45/57/1
f 34/40/5 33/39/5 45/57/5 46/58/5
f 49/61/3 51/63/3 55/67/3 53/65/3
f 50/62/5 49/61/5 53/65/5 54/66/5
f 59/71/2 60/72/2 64/76/2 63/75/2
f 62/74/7 61/73/7 63/75/7 64/76/7
f 60/72/8 58/70/8 62/74/8 64/76/8
f 57/69/9 59/71/9 63/75/9 61/73/9
f 58/70/5 57/69/5 61/73/5 62/74/5
f 73/91/1 69/81/1 71/85/1 75/93/1
f 76/94/2 75/93/2 71/86/2 72/88/2
f 72/89/3 71/87/3 69/82/3 70/84/3
f 70/83/4 74/92/4 76/94/4 72/90/4
f 68/80/4 66/78/4 78/96/4 80/98/4
f 70/84/5 69/82/5 73/91/5 74/92/5
f 83/101/2 84/102/2 88/106/2 87/105/2
f 86/104/1 85/103/1 87/105/1 88/106/1
f 84/102/6 82/100/6 86/104/6 88/106/6
f 74/92/6 73/91/6 75/93/6 76/94/6
f 78/96/6 77/95/6 79/97/6 80/98/6
f 67/79/2 68/80/2 80/98/2 79/97/2
f 65/77/1 67/79/1 79/97/1 77/95/1
f 66/78/5 65/77/5 77/95/5 78/96/5
f 81/99/3 83/101/3 87/105/3 85/103/3
f 82/100/5 81/99/5 85/103/5 86/104/5
f 91/109/2 92/110/2 96/114/2 95/113/2
f 94/112/7 93/111/7 95/113/7 96/114/7
f 92/110/8 90/108/8 94/112/8 96/114/8
f 89/107/9 91/109/9 95/113/9 93/111/9
f 90/108/5 89/107/5 93/111/5 94/112/5
f 105/129/4 101/119/4 103/123/4 107/131/4
f 108/132/2 107/131/2 103/124/2 104/126/2
f 104/127/6 103/125/6 101/120/6 102/122/6
f 102/121/1 106/130/1 108/132/1 104/128/1
f 100/118/1 98/116/1 110/134/1 112/136/1
f 102/122/5 101/120/5 105/129/5 106/130/5
f 115/139/2 116/140/2 120/144/2 119/143/2
f 118/142/4 117/141/4 119/143/4 120/144/4
f 116/140/3 114/138/3 118/142/3 120/144/3
f 106/130/3 105/129/3 107/131/3 108/132/3
f 110/134/3 109/133/3 111/135/3 112/136/3
f 99/117/2 100/118/2 112/136/2 111/135/2
f 97/115/4 99/117/4 111/135/4 109/133/4
f 98/116/5 97/115/5 109/133/5 110/134/5
f 113/137/6 115/139/6 119/143/6 117/141/6
f 114/138/5 113/137/5 117/141/5 118/142/5
f 123/147/2 124/148/2 128/152/2 127/151/2
f 126/150/10 125/149/10 127/151/10 128/152/10
f 124/148/9 122/146/9 126/150/9 128/152/9
f 121/145/8 123/147/8 127/151/8 125/149/8
f 122/146/5 121/145/5 125/149/5 126/150/5
f 137/167/4 133/157/4 135/161/4 139/169/4
f 140/170/2 139/169/2 135/162/2 136/164/2
f 136/165/6 135/163/6 133/158/6 134/160/6
f 134/159/1 138/168/1 140/170/1 136/166/1
f 132/156/1 130/154/1 142/172/1 144/174/1
f 134/160/5 133/158/5 137/167/5 138/168/5
f 147/177/2 148/178/2 152/182/2 151/181/2
f 150/180/4 149/179/4 151/181/4 152/182/4
f 148/178/3 146/176/3 150/180/3 152/182/3
f 138/168/3 137/167/3 139/169/3 140/170/3
f 142/172/3 141/171/3 143/173/3 144/174/3
f 131/155/2 132/156/2 144/174/2 143/173/2
f 129/153/4 131/155/4 143/173/4 141/171/4
f 130/154/5 129/153/5 141/171/5 142/172/5
f 145/175/6 147/177/6 151/181/6 149/179/6
f 146/176/5 145/175/5 149/179/5 150/180/5
f 155/185/2 156/186/2 160/190/2 159/189/2
f 158/188/10 157/187/10 159/189/10 160/190/10
f 156/186/9 154/184/9 158/188/9 160/190/9
f 153/183/8 155/185/8 159/189/8 157/187/8
f 154/184/5 153/183/5 157/187/5 158/188/5
f 169/205/4 165/195/4 167/199/4 171/207/4
f 172/208/2 171/207/2 167/200/2 168/202/2
f 168/203/6 167/201/6 165/196/6 166/198/6
f 166/197/1 170/206/1 172/208/1 168/204/1
f 164/194/1 162/192/1 174/210/1 176/212/1
f 166/198/5 165/196/5 169/205/5 170/206/5
f 179/215/2 180/216/2 184/220/2 183/219/2
f 182/218/4 181/217/4 183/219/4 184/220/4
f 180/216/3 178/214/3 182/218/3 184/220/3
f 170/206/3 169/205/3 171/207/3 172/208/3
f 174/210/3 173/209/3 175/211/3 176/212/3
f 163/193/2 164/194/2 176/212/2 175/211/2
f 161/191/4 163/193/4 175/211/4 173/209/4
f 162/192/5 161/191/5 173/209/5 174/210/5
f 177/213/6 179/215/6 183/219/6 181/217/6
f 178/214/5 177/213/5 181/217/5 182/218/5
f 187/223/2 188/224/2 192/228/2 191/227/2
f 190/226/10 189/225/10 191/227/10 192/228/10
f 188/224/9 186/222/9 190/226/9 192/228/9
f 185/221/8 187/223/8 191/227/8 189/225/8
f 186/222/5 185/221/5 189/225/5 190/226/5
f 193/229/1 194/230/1 196/232/1 195/231/1
f 197/233/1 198/234/1 200/236/1 199/235/1
f 201/237/1 202/238/1 204/240/1 203/239/1
f 205/241/1 206/242/1 208/244/1 207/243/1
f 209/245/1 210/246/1 212/248/1 211/247/1
f 213/249/1 214/250/1 216/252/1 215/251/1
f 217/253/1 218/254/1 220/256/1 219/255/1
f 221/257/1 222/258/1 224/260/1 223/259/1
f 225/261/1 226/262/1 228/264/1 227/263/1
